<?xml version="1.0" encoding="UTF-8" standalone="no"?>
<!DOCTYPE svg PUBLIC "-//W3C//DTD SVG 1.1//EN"
 "http://www.w3.org/Graphics/SVG/1.1/DTD/svg11.dtd">
<!-- Generated by graphviz version 15.1.0 (20260618.0150)
 -->
<!-- Title: dependency&#45;cruiser output Pages: 1 -->
<svg width="296pt" height="108pt"
 viewBox="0.00 0.00 296.00 108.00" xmlns="http://www.w3.org/2000/svg" xmlns:xlink="http://www.w3.org/1999/xlink">
<g id="graph0" class="graph" transform="scale(1 1) rotate(0) translate(4 104)">
<title>dependency&#45;cruiser output</title>
<polygon fill="white" stroke="none" points="-4,4 -4,-104 292.25,-104 292.25,4 -4,4"/>
<g id="clust1" class="cluster">
<title>cluster_src</title>
<path fill="#ffffff" stroke="black" stroke-width="2" d="M20,-8C20,-8 268.25,-8 268.25,-8 274.25,-8 280.25,-14 280.25,-20 280.25,-20 280.25,-80 280.25,-80 280.25,-86 274.25,-92 268.25,-92 268.25,-92 20,-92 20,-92 14,-92 8,-86 8,-80 8,-80 8,-20 8,-20 8,-14 14,-8 20,-8"/>
<text xml:space="preserve" text-anchor="middle" x="144.12" y="-79.45" font-family="Helvetica,sans-Serif" font-weight="bold" font-size="9.00">src</text>
</g>
<!-- src/App.jsx -->
<g id="node1" class="node">
<title>src/App.jsx</title>
<g id="a_node1"><a xlink:href="src/App.jsx" xlink:title="App.jsx">
<path fill="#ffff77" stroke="black" d="M130.96,-34.25C130.96,-34.25 89.29,-34.25 89.29,-34.25 86.21,-34.25 83.12,-31.17 83.12,-28.08 83.12,-28.08 83.12,-21.92 83.12,-21.92 83.12,-18.83 86.21,-15.75 89.29,-15.75 89.29,-15.75 130.96,-15.75 130.96,-15.75 134.04,-15.75 137.12,-18.83 137.12,-21.92 137.12,-21.92 137.12,-28.08 137.12,-28.08 137.12,-31.17 134.04,-34.25 130.96,-34.25"/>
<text xml:space="preserve" text-anchor="start" x="95.12" y="-22" font-family="Helvetica,sans-Serif" font-size="9.00">App.jsx</text>
</a>
</g>
</g>
<!-- src/about.jsx -->
<g id="node2" class="node">
<title>src/about.jsx</title>
<g id="a_node2"><a xlink:href="src/about.jsx" xlink:title="about.jsx">
<path fill="#ffff77" stroke="black" d="M198.08,-34.25C198.08,-34.25 156.42,-34.25 156.42,-34.25 153.33,-34.25 150.25,-31.17 150.25,-28.08 150.25,-28.08 150.25,-21.92 150.25,-21.92 150.25,-18.83 153.33,-15.75 156.42,-15.75 156.42,-15.75 198.08,-15.75 198.08,-15.75 201.17,-15.75 204.25,-18.83 204.25,-21.92 204.25,-21.92 204.25,-28.08 204.25,-28.08 204.25,-31.17 201.17,-34.25 198.08,-34.25"/>
<text xml:space="preserve" text-anchor="start" x="158.88" y="-22" font-family="Helvetica,sans-Serif" font-size="9.00">about.jsx</text>
</a>
</g>
</g>
<!-- src/App.jsx&#45;&gt;src/about.jsx -->
<g id="edge1" class="edge">
<title>src/App.jsx&#45;&gt;src/about.jsx</title>
<path fill="none" stroke="#000000" stroke-width="2" stroke-opacity="0.200000" d="M137.61,-25C138.76,-25 139.92,-25 141.09,-25"/>
<polygon fill="#000000" fill-opacity="0.200000" stroke="#000000" stroke-width="2" stroke-opacity="0.200000" points="140.97,-27.1 146.97,-25 140.97,-22.9 140.97,-27.1"/>
</g>
<!-- src/Footer.jsx -->
<g id="node3" class="node">
<title>src/Footer.jsx</title>
<g id="a_node3"><a xlink:href="src/Footer.jsx" xlink:title="Footer.jsx">
<path fill="#ffff77" stroke="black" d="M266.08,-45.25C266.08,-45.25 223.42,-45.25 223.42,-45.25 220.33,-45.25 217.25,-42.17 217.25,-39.08 217.25,-39.08 217.25,-32.92 217.25,-32.92 217.25,-29.83 220.33,-26.75 223.42,-26.75 223.42,-26.75 266.08,-26.75 266.08,-26.75 269.17,-26.75 272.25,-29.83 272.25,-32.92 272.25,-32.92 272.25,-39.08 272.25,-39.08 272.25,-42.17 269.17,-45.25 266.08,-45.25"/>
<text xml:space="preserve" text-anchor="start" x="225.25" y="-33" font-family="Helvetica,sans-Serif" font-size="9.00">Footer.jsx</text>
</a>
</g>
</g>
<!-- src/App.jsx&#45;&gt;src/Footer.jsx -->
<g id="edge2" class="edge">
<title>src/App.jsx&#45;&gt;src/Footer.jsx</title>
<path fill="none" stroke="#000000" stroke-width="2" stroke-opacity="0.200000" d="M132.24,-34.71C137.96,-36.89 144.24,-38.89 150.25,-40 169.16,-43.5 190.57,-42.91 208.13,-41.26"/>
<polygon fill="#000000" fill-opacity="0.200000" stroke="#000000" stroke-width="2" stroke-opacity="0.200000" points="208.17,-43.37 213.92,-40.64 207.73,-39.19 208.17,-43.37"/>
</g>
<!-- src/about.jsx&#45;&gt;src/Footer.jsx -->
<g id="edge3" class="edge">
<title>src/about.jsx&#45;&gt;src/Footer.jsx</title>
<path fill="none" stroke="#000000" stroke-width="2" stroke-opacity="0.200000" d="M204.51,-29.41C205.8,-29.63 207.11,-29.85 208.42,-30.07"/>
<polygon fill="#000000" fill-opacity="0.200000" stroke="#000000" stroke-width="2" stroke-opacity="0.200000" points="207.8,-32.09 214.07,-31.02 208.5,-27.95 207.8,-32.09"/>
</g>
<!-- src/index.css -->
<g id="node4" class="node">
<title>src/index.css</title>
<g id="a_node4"><a xlink:href="src/index.css" xlink:title="index.css">
<path fill="#ffffcc" stroke="black" d="M131.08,-65.25C131.08,-65.25 89.17,-65.25 89.17,-65.25 86.08,-65.25 83,-62.17 83,-59.08 83,-59.08 83,-52.92 83,-52.92 83,-49.83 86.08,-46.75 89.17,-46.75 89.17,-46.75 131.08,-46.75 131.08,-46.75 134.17,-46.75 137.25,-49.83 137.25,-52.92 137.25,-52.92 137.25,-59.08 137.25,-59.08 137.25,-62.17 134.17,-65.25 131.08,-65.25"/>
<text xml:space="preserve" text-anchor="start" x="91" y="-53" font-family="Helvetica,sans-Serif" font-size="9.00">index.css</text>
</a>
</g>
</g>
<!-- src/main.jsx -->
<g id="node5" class="node">
<title>src/main.jsx</title>
<g id="a_node5"><a xlink:href="src/main.jsx" xlink:title="main.jsx">
<path fill="#ffff77" stroke="black" d="M63.83,-49.25C63.83,-49.25 22.17,-49.25 22.17,-49.25 19.08,-49.25 16,-46.17 16,-43.08 16,-43.08 16,-36.92 16,-36.92 16,-33.83 19.08,-30.75 22.17,-30.75 22.17,-30.75 63.83,-30.75 63.83,-30.75 66.92,-30.75 70,-33.83 70,-36.92 70,-36.92 70,-43.08 70,-43.08 70,-46.17 66.92,-49.25 63.83,-49.25"/>
<text xml:space="preserve" text-anchor="start" x="26.12" y="-37" font-family="Helvetica,sans-Serif" font-size="9.00">main.jsx</text>
</a>
</g>
</g>
<!-- src/main.jsx&#45;&gt;src/App.jsx -->
<g id="edge4" class="edge">
<title>src/main.jsx&#45;&gt;src/App.jsx</title>
<path fill="none" stroke="#000000" stroke-width="2" stroke-opacity="0.200000" d="M70.49,-33.9C71.77,-33.6 73.05,-33.31 74.35,-33.01"/>
<polygon fill="#000000" fill-opacity="0.200000" stroke="#000000" stroke-width="2" stroke-opacity="0.200000" points="74.55,-35.12 79.92,-31.73 73.6,-31.03 74.55,-35.12"/>
</g>
<!-- src/main.jsx&#45;&gt;src/index.css -->
<g id="edge5" class="edge">
<title>src/main.jsx&#45;&gt;src/index.css</title>
<path fill="none" stroke="#000000" stroke-width="2" stroke-opacity="0.200000" d="M70.49,-46.51C71.77,-46.82 73.05,-47.14 74.35,-47.46"/>
<polygon fill="#000000" fill-opacity="0.200000" stroke="#000000" stroke-width="2" stroke-opacity="0.200000" points="73.6,-49.44 79.93,-48.83 74.61,-45.36 73.6,-49.44"/>
</g>
</g>
</svg>
